<?xml version="1.0" encoding="utf-8"?>
<!-- Generator: Adobe Illustrator 26.3.1, SVG Export Plug-In . SVG Version: 6.00 Build 0)  -->
<svg version="1.1" id="Layer_1" xmlns="http://www.w3.org/2000/svg" xmlns:xlink="http://www.w3.org/1999/xlink" x="0px" y="0px"
	 viewBox="0 0 512 512" style="enable-background:new 0 0 512 512;" xml:space="preserve">
<style type="text/css">
	.st0{fill:none;}
</style>
<path id="front" class="st0" d="M148.0541992,196.2206268c14.4796143,0,28.526062,2.8830872,41.7487488,8.5690002
	c12.772522,5.4922485,24.2434998,13.3553009,34.094574,23.3705597c9.8515778,10.0157013,17.5864105,21.678833,22.9889679,34.6656494
	c5.5940399,13.4455566,8.4303284,27.7286072,8.4303284,42.4523926v93.8670349v65.1438904
	c0,2.15802-0.1555176,4.3267517-0.461853,6.4458008c-1.2909851,8.9239807-5.2088928,17.1225281-11.3304901,23.7097168
	c-3.9962311,4.3001099-8.7107239,7.6837463-14.0128784,10.0567017c-5.4877014,2.4562683-11.3356018,3.7015076-17.3813782,3.7015076
	h-63.1761017h-64.975975c-5.8294601,0-11.4842834-1.1605225-16.8076096-3.4496765
	c-5.1424103-2.2113037-9.760807-5.3770447-13.7272224-9.4096069c-3.9671135-4.0330505-7.0815239-8.7295227-9.2570572-13.9588013
	c-2.2527313-5.4143982-3.3947029-11.1661987-3.3947029-17.0956421v-65.1438904v-93.8670349
	c0-10.0100098,1.3334618-19.9264526,3.9628944-29.4738159c2.5490646-9.2540894,6.3074837-18.139801,11.1709938-26.4102783
	c9.6158752-16.3522491,23.3291092-29.9268036,39.6571045-39.2560425c7.8456268-4.4825897,16.224823-7.9420624,24.9050446-10.2822266
	C129.4343262,197.4434204,138.7089996,196.2206268,148.0541992,196.2206268"/>
</svg>
