<?xml version="1.0" encoding="utf-8"?>
<!-- Generator: Adobe Illustrator 26.3.1, SVG Export Plug-In . SVG Version: 6.00 Build 0)  -->
<svg version="1.1" id="DELETE-Seam_Lines_x2C__Safe_Zones"
	 xmlns="http://www.w3.org/2000/svg" xmlns:xlink="http://www.w3.org/1999/xlink" x="0px" y="0px" viewBox="0 0 512 512"
	 style="enable-background:new 0 0 512 512;" xml:space="preserve">
<style type="text/css">
	.st0{fill:none;stroke:#2D72B7;stroke-width:0.6994535;stroke-miterlimit:10;}
	.st1{fill:none;stroke:#2D72B7;stroke-width:0.6994535;stroke-miterlimit:10;stroke-dasharray:5.2858071,5.2858071;}
	.st2{fill:none;stroke:#2D72B7;stroke-width:0.6994535;stroke-miterlimit:10;stroke-dasharray:5.1995287,5.1995287;}
</style>
<g id="safeZone_x5F_front">
	<g>
		<g>
			<polyline class="st0" points="243.0616455,339.3857422 243.0616455,342.0097656 240.4376221,342.0097656 			"/>
			<line class="st1" x1="235.1517944" y1="342.0097656" x2="58.0772705" y2="342.0097656"/>
			<polyline class="st0" points="55.4343872,342.0097656 52.8103027,342.0097656 52.8103027,339.3857422 			"/>
			<path class="st2" d="M52.8103027,334.1861572v-28.5422363c0-8.9213867,1.1867676-17.753418,3.5272217-26.2509766
				c2.2663574-8.2280273,5.6078491-16.1281738,9.9316406-23.480957
				c8.5450439-14.5311279,20.7226562-26.5889893,35.2163696-34.8701172
				c6.9465332-3.9691162,14.362915-7.0313721,22.0430908-9.1020508c7.9171753-2.1343994,16.1290283-3.2166748,24.4074707-3.2166748
				c12.8215942,0,25.2546997,2.5509033,36.9542236,7.5819092c11.3207397,4.868042,21.4937134,11.8432617,30.2364502,20.7316895
				c8.756958,8.902832,15.6325684,19.2709961,20.4359131,30.8166504
				c4.9759521,11.9605713,7.4989624,24.6751709,7.4989624,37.7905273v31.1419678"/>
		</g>
	</g>
</g>
</svg>
